<!-- created by svgstack.com | Attribution is required. --><svg width="120" height="120" viewBox="0 0 120 120" fill="none" xmlns="http://www.w3.org/2000/svg"><path fill-rule="evenodd" clip-rule="evenodd" d="M91.4062 0C108.75 0 120 11.25 120 28.5938V91.4062C120 108.75 108.75 120 91.4062 120H28.5938C11.25 120 0 108.75 0 91.4062V28.5938C0 11.25 11.25 0 28.5938 0H91.4062Z" fill="#252525"/><g clip-path="url(#clip0_10_4643)"><path d="M46.3333 99.9999C53.6901 99.9999 59.6667 94.0299 59.6667 86.6666V73.3333H46.3333C38.9766 73.3333 33 79.3033 33 86.6666C33 94.0299 38.9766 99.9999 46.3333 99.9999Z" fill="#0ACF83"/><path d="M33 60.0001C33 52.6433 38.9766 46.6667 46.3333 46.6667H59.6667V73.3334H46.3333C38.9766 73.3334 33 67.3634 33 60.0001Z" fill="#A259FF"/><path d="M33 33.3333C33 25.9766 38.9766 20 46.3333 20H59.6667V46.6667H46.3333C38.9766 46.6667 33 40.6966 33 33.3333Z" fill="#F24E1E"/><path d="M59.6667 20H73.0001C80.3569 20 86.3334 25.9766 86.3334 33.3333C86.3334 40.6966 80.3634 46.6667 73.0001 46.6667H59.6667V20Z" fill="#FF7262"/><path d="M86.3334 60.0001C86.3334 67.3634 80.3634 73.3334 73.0001 73.3334C65.6368 73.3334 59.6667 67.3634 59.6667 60.0001C59.6667 52.6433 65.6368 46.6667 73.0001 46.6667C80.3634 46.6667 86.3334 52.6433 86.3334 60.0001Z" fill="#1ABCFE"/></g><defs><clipPath id="clip0_10_4643"><rect width="53.3333" height="80" fill="white" transform="translate(33 20)"/></clipPath></defs></svg> 