<!-- created by svgstack.com | Attribution is required. --><svg width="412" height="168" viewBox="0 0 412 168" fill="none" xmlns="http://www.w3.org/2000/svg"><g clip-path="url(#clip0_10019_1660)"><path d="M81.4598 43.8381C62.9468 43.8381 47.7998 58.9851 47.7998 77.4981C47.7998 96.0111 62.9468 111.158 81.4598 111.158C99.9728 111.158 115.12 96.1046 115.12 77.4981C115.12 58.8916 100.066 43.8381 81.4598 43.8381ZM81.4598 99.0966C69.9593 99.0966 60.7028 89.6531 60.7028 77.4981C60.7028 65.3431 69.9593 55.8996 81.4598 55.8996C92.9603 55.8996 102.217 65.3431 102.217 77.4981C102.217 89.6531 92.9603 99.0966 81.4598 99.0966Z" fill="black"/><path d="M149.153 62.5381C143.076 62.5381 137.185 64.9691 134.1 69.0831V63.4731H121.945V128.923H134.1V105.268C137.185 109.101 142.889 111.158 149.153 111.158C162.243 111.158 172.528 100.873 172.528 86.8481C172.528 72.8231 162.243 62.5381 149.153 62.5381ZM147.096 100.593C140.177 100.593 134.006 95.1696 134.006 86.8481C134.006 78.5266 140.177 73.1036 147.096 73.1036C154.015 73.1036 160.186 78.5266 160.186 86.8481C160.186 95.1696 154.015 100.593 147.096 100.593Z" fill="black"/><path d="M201.141 62.5381C187.864 62.5381 177.392 72.9166 177.392 86.8481C177.392 100.78 186.555 111.158 201.515 111.158C213.763 111.158 221.617 103.772 224.048 95.4501H212.174C210.678 98.9096 206.47 101.341 201.421 101.341C195.157 101.341 190.388 96.9461 189.266 90.6816H224.609V85.9131C224.609 73.1971 215.727 62.5381 201.141 62.5381ZM189.36 82.0796C190.669 76.1891 195.531 72.3556 201.421 72.3556C207.686 72.3556 212.454 76.4696 213.015 82.0796H189.36Z" fill="black"/><path d="M256.959 62.5381C251.536 62.5381 245.833 64.9691 243.215 68.9896V63.4731H231.06V110.223H243.215V85.0716C243.215 77.7786 247.142 73.0101 253.5 73.0101C259.39 73.0101 262.569 77.4981 262.569 83.7626V110.223H274.724V81.7991C274.724 70.2051 267.618 62.5381 256.959 62.5381Z" fill="black"/><path d="M305.855 44.7749L279.395 110.225H292.391L298.001 95.9194H328.108L333.718 110.225H346.902L320.628 44.7749H305.855ZM302.209 85.0734L313.055 57.6779L323.807 85.0734H302.209Z" fill="black"/><path d="M364.199 44.7749H351.857V110.225H364.199V44.7749Z" fill="black"/></g><defs><clipPath id="clip0_10019_1660"><rect width="316.8" height="85.8" fill="white" transform="translate(47.7999 43.3999)"/></clipPath></defs></svg> 